HIERARCHY
ROOT hip
{
  OFFSET 0 0 0
  CHANNELS 6 Xposition Yposition Zposition Zrotation Yrotation Xrotation
  JOINT abdomen
  {
    OFFSET 0 20.6881 -0.73152
    CHANNELS 3 Zrotation Xrotation Yrotation
    JOINT chest
    {
      OFFSET 0 11.7043 -0.48768
      CHANNELS 3 Zrotation Xrotation Yrotation
      JOINT neck
      {
        OFFSET 0 22.1894 -2.19456
        CHANNELS 3 Zrotation Xrotation Yrotation
        JOINT head
        {
          OFFSET -0.24384 7.07133 1.2192
          CHANNELS 3 Zrotation Xrotation Yrotation
          JOINT leftEye
          {
            OFFSET 4.14528 8.04674 8.04672
            CHANNELS 3 Zrotation Xrotation Yrotation
            End Site
            {
              OFFSET 1 0 0
            }
          }
          JOINT rightEye
          {
            OFFSET -3.6576 8.04674 8.04672
            CHANNELS 3 Zrotation Xrotation Yrotation
            End Site
            {
              OFFSET 1 0 0
            }
          }
        }
      }
      JOINT rCollar
      {
        OFFSET -2.68224 19.2634 -4.8768
        CHANNELS 3 Zrotation Xrotation Yrotation
        JOINT rShldr
        {
          OFFSET -8.77824 -1.95073 1.46304
          CHANNELS 3 Zrotation Xrotation Yrotation
          JOINT rForeArm
          {
            OFFSET -28.1742 -1.7115 0.48768
            CHANNELS 3 Zrotation Xrotation Yrotation
            JOINT rHand
            {
              OFFSET -22.5879 0.773209 7.07136
              CHANNELS 3 Zrotation Xrotation Yrotation
              JOINT rThumb1
              {
                OFFSET -1.2192 -0.487915 3.41376
                CHANNELS 3 Zrotation Xrotation Yrotation
                JOINT rThumb2
                {
                  OFFSET -3.37035 -0.52449 3.41376
                  CHANNELS 3 Zrotation Xrotation Yrotation
                  End Site
                  {
                    OFFSET -1.78271 -1.18214 1.43049
                  }
                }
              }
              JOINT rIndex1
              {
                OFFSET -7.75947 0.938293 5.60832
                CHANNELS 3 Zrotation Xrotation Yrotation
                JOINT rIndex2
                {
                  OFFSET -2.54057 -0.884171 1.56538
                  CHANNELS 3 Zrotation Xrotation Yrotation
                  End Site
                  {
                    OFFSET -1.62519 -0.234802 1.16502
                  }
                }
              }
              JOINT rMid1
              {
                OFFSET -8.24714 1.18213 3.41376
                CHANNELS 3 Zrotation Xrotation Yrotation
                JOINT rMid2
                {
                  OFFSET -3.10165 -0.590103 1.0647
                  CHANNELS 3 Zrotation Xrotation Yrotation
                  End Site
                  {
                    OFFSET -2.48547 -0.328903 0.83742
                  }
                }
              }
              JOINT rRing1
              {
                OFFSET -8.82822 0.546677 1.51678
                CHANNELS 3 Zrotation Xrotation Yrotation
                JOINT rRing2
                {
                  OFFSET -2.60934 -0.819778 -0.0198488
                  CHANNELS 3 Zrotation Xrotation Yrotation
                  End Site
                  {
                    OFFSET -2.33842 -0.294052 0.168128
                  }
                }
              }
              JOINT rPinky1
              {
                OFFSET -8.27202 -0.0477905 -0.4584
                CHANNELS 3 Zrotation Xrotation Yrotation
                JOINT rPinky2
                {
                  OFFSET -1.82734 -0.647385 -0.700984
                  CHANNELS 3 Zrotation Xrotation Yrotation
                  End Site
                  {
                    OFFSET -1.69225 -0.51767 -0.607171
                  }
                }
              }
            }
          }
        }
      }
      JOINT lCollar
      {
        OFFSET 2.68224 19.2634 -4.8768
        CHANNELS 3 Zrotation Xrotation Yrotation
        JOINT lShldr
        {
          OFFSET 8.77824 -1.95073 1.46304
          CHANNELS 3 Zrotation Xrotation Yrotation
          JOINT lForeArm
          {
            OFFSET 28.1742 -1.7115 0.48768
            CHANNELS 3 Zrotation Xrotation Yrotation
            JOINT lHand
            {
              OFFSET 22.5879 0.773209 7.07136
              CHANNELS 3 Zrotation Xrotation Yrotation
              JOINT lThumb1
              {
                OFFSET 1.2192 -0.487915 3.41376
                CHANNELS 3 Zrotation Xrotation Yrotation
                JOINT lThumb2
                {
                  OFFSET 3.37035 -0.52449 3.41376
                  CHANNELS 3 Zrotation Xrotation Yrotation
                  End Site
                  {
                    OFFSET 1.78271 -1.18214 1.43049
                  }
                }
              }
              JOINT lIndex1
              {
                OFFSET 7.75947 0.938293 5.60832
                CHANNELS 3 Zrotation Xrotation Yrotation
                JOINT lIndex2
                {
                  OFFSET 2.54057 -0.884171 1.56538
                  CHANNELS 3 Zrotation Xrotation Yrotation
                  End Site
                  {
                    OFFSET 1.62519 -0.234802 1.16502
                  }
                }
              }
              JOINT lMid1
              {
                OFFSET 8.24714 1.18213 3.41376
                CHANNELS 3 Zrotation Xrotation Yrotation
                JOINT lMid2
                {
                  OFFSET 3.10165 -0.590103 1.0647
                  CHANNELS 3 Zrotation Xrotation Yrotation
                  End Site
                  {
                    OFFSET 2.48547 -0.328903 0.83742
                  }
                }
              }
              JOINT lRing1
              {
                OFFSET 8.82822 0.546677 1.51678
                CHANNELS 3 Zrotation Xrotation Yrotation
                JOINT lRing2
                {
                  OFFSET 2.60934 -0.819778 -0.0198488
                  CHANNELS 3 Zrotation Xrotation Yrotation
                  End Site
                  {
                    OFFSET 2.33842 -0.294052 0.168128
                  }
                }
              }
              JOINT lPinky1
              {
                OFFSET 8.27202 -0.0477905 -0.4584
                CHANNELS 3 Zrotation Xrotation Yrotation
                JOINT lPinky2
                {
                  OFFSET 1.82734 -0.647385 -0.700984
                  CHANNELS 3 Zrotation Xrotation Yrotation
                  End Site
                  {
                    OFFSET 1.69225 -0.51767 -0.607171
                  }
                }
              }
            }
          }
        }
      }
    }
  }
  JOINT rButtock
  {
    OFFSET -8.77824 4.35084 1.2192
    CHANNELS 3 Zrotation Xrotation Yrotation
    JOINT rThigh
    {
      OFFSET 0 -1.70687 -2.19456
      CHANNELS 3 Zrotation Xrotation Yrotation
      JOINT rShin
      {
        OFFSET 0 -36.8199 0.73152
        CHANNELS 3 Zrotation Xrotation Yrotation
        JOINT rFoot
        {
          OFFSET 0.73152 -45.1104 -5.12064
          CHANNELS 3 Zrotation Xrotation Yrotation
          End Site
          {
            OFFSET -1.1221 -3.69964 12.103
          }
        }
      }
    }
  }
  JOINT lButtock
  {
    OFFSET 8.77824 4.35084 1.2192
    CHANNELS 3 Zrotation Xrotation Yrotation
    JOINT lThigh
    {
      OFFSET 0 -1.70687 -2.19456
      CHANNELS 3 Zrotation Xrotation Yrotation
      JOINT lShin
      {
        OFFSET 0 -36.8199 0.73152
        CHANNELS 3 Zrotation Xrotation Yrotation
        JOINT lFoot
        {
          OFFSET -0.73152 -45.1104 -5.12064
          CHANNELS 3 Zrotation Xrotation Yrotation
          End Site
          {
            OFFSET 1.1221 -3.69964 12.103
          }
        }
      }
    }
  }
}
MOTION
Frames:	6
Frame Time:	0.00833333
118.105 84.3737 -111.957 0.0 0.0 0.0 -1.03703 -0.0041444 -0.0285997 -0.285911 -0.00382803 -0.0495309 -2.46387e-14 0.0 1.98785e-16 -7.39324e-14 3.18055e-15 5.48211e-16 -0.0 0.0 0.0 -0.0 0.0 0.0 -1.23264e-14 -4.27076e-18 1.98785e-16 -2.55741e-13 -3.72721e-17 2.38542e-15 -4.45178e-12 1.33305e-12 6.99722e-14 -5.10148e-11 -1.33963e-12 2.92611e-13 -1.20327e-10 -1.51155e-14 8.17403e-13 -2.07801e-10 -2.54444e-14 1.40342e-12 -1.20321e-10 -1.39149e-14 8.11041e-13 7.73091 5.47488 0.417314 -1.20328e-10 -1.5207e-14 8.11041e-13 2.90554 0.965183 0.102902 -1.20318e-10 -1.46107e-14 8.05475e-13 10.2786 0.731801 0.0259123 -1.2033e-10 -1.43125e-14 8.11041e-13 2.22167 -0.733487 -0.20892 -1.23237e-14 -4.65902e-18 0.0 -2.61251e-13 6.21202e-17 1.98785e-16 -4.46033e-12 -1.33186e-12 5.08889e-14 -5.1014e-11 1.32602e-12 3.21236e-13 -1.2034e-10 -1.61422e-14 8.015e-13 -2.07812e-10 -3.18055e-14 1.3907e-12 -1.20347e-10 -1.35174e-14 8.14222e-13 -7.73091 5.47488 -0.417314 -1.2034e-10 -1.60022e-14 7.98319e-13 -2.90554 0.965183 -0.102902 -1.20351e-10 -1.61016e-14 8.03885e-13 -10.2786 0.731801 -0.0259123 -1.20336e-10 -1.59028e-14 8.015e-13 -2.22167 -0.733487 0.20892 -2.03217e-16 0.0 -3.88251e-19 -0.272887 -1.9197 -0.0125397 -0.0093847 -2.07854 -0.0775777 -0.513213 3.99654 0.140452 2.03217e-16 0.0 3.88251e-19 -1.30499 -5.55694 0.114028 -0.000204153 4.50983 -0.0271165 0.527422 1.04554 -0.0815592
119.789 82.3338 -116.341 -6.8758 63.0364 1.9804 -2.60259 2.28439 -1.8508 0.547452 -1.68231 -0.558441 -1.24653 -0.18746 -2.15957 2.9439 5.42707 -4.10577 -0.0 0.0 0.0 -0.0 0.0 0.0 -4.65607e-14 1.40963e-13 -2.4734e-13 20.0891 10.6934 -4.27263 -9.44194 -6.30177 11.925 5.91534e-05 0.17544 0.0246561 8.95621e-11 -2.54889e-10 3.24128e-10 1.54781e-10 -4.32368e-10 5.56894e-10 8.95673e-11 -2.54888e-10 3.24125e-10 7.73091 5.47488 0.417314 8.95608e-11 -2.54889e-10 3.24124e-10 2.90554 0.965183 0.102902 8.95714e-11 -2.54888e-10 3.24121e-10 10.2786 0.731801 0.0259123 8.95589e-11 -2.54888e-10 3.24127e-10 2.22167 -0.733487 -0.20892 -4.65178e-14 1.40954e-13 -2.47555e-13 -19.5789 6.92304 -0.419492 5.87536 -3.10925 -8.65075 -0.0796466 -6.27162 0.862511 6.1729e-10 1.34819e-10 -4.70085e-10 1.07634e-09 2.32229e-10 -8.01447e-10 6.17279e-10 1.34822e-10 -4.7007e-10 -7.73091 5.47488 -0.417314 6.17288e-10 1.34819e-10 -4.70088e-10 -2.90554 0.965183 -0.102902 6.17278e-10 1.34819e-10 -4.70081e-10 -10.2786 0.731801 -0.0259123 6.17295e-10 1.34819e-10 -4.70085e-10 -2.22167 -0.733487 0.20892 -2.03217e-16 0.0 -3.88251e-19 0.501862 -9.81784 -1.86893 0.0210095 9.48729 0.105576 -0.349537 -3.86717 0.347567 2.03217e-16 0.0 3.88251e-19 1.38218 -9.82355 -1.61316 -0.115151 17.7409 -0.310255 0.868157 -10.0879 2.07149
119.877 82.5096 -114.618 -6.5036 61.451 2.198 -4.13102 4.68499 -3.82702 1.40713 -3.45196 -1.10981 -2.58826 -0.378488 -4.44796 6.93402 11.0763 -8.58019 -0.0 0.0 0.0 -0.0 0.0 0.0 -8.97211e-14 3.0334e-13 -4.93439e-13 43.2219 21.8069 -9.36323 -16.6347 -12.0838 25.0043 -4.38639e-05 0.356187 0.0500589 3.1838e-10 -5.89296e-10 6.87687e-10 5.49964e-10 -1.00215e-09 1.18191e-09 3.18384e-10 -5.89295e-10 6.87689e-10 7.73091 5.47488 0.417314 3.18378e-10 -5.89295e-10 6.87686e-10 2.90554 0.965183 0.102902 3.18389e-10 -5.89295e-10 6.87686e-10 10.2786 0.731801 0.0259123 3.18376e-10 -5.89295e-10 6.87692e-10 2.22167 -0.733487 -0.20892 -8.9632e-14 3.03322e-13 -4.93672e-13 -40.1577 14.2423 -0.949925 11.0506 -6.13563 -17.8404 0.0461582 -12.869 1.80549 1.43135e-09 2.80901e-10 -9.08234e-10 2.49167e-09 4.83638e-10 -1.54625e-09 1.43134e-09 2.80903e-10 -9.08216e-10 -7.73091 5.47488 -0.417314 1.43135e-09 2.80901e-10 -9.08237e-10 -2.90554 0.965183 -0.102902 1.43134e-09 2.80901e-10 -9.08229e-10 -10.2786 0.731801 -0.0259123 1.43136e-09 2.80901e-10 -9.08233e-10 -2.22167 -0.733487 0.20892 -2.03217e-16 0.0 -3.88251e-19 0.723242 -18.1835 -4.01394 -0.0317467 21.7855 0.321278 -0.12517 -12.2142 0.539099 2.03217e-16 0.0 3.88251e-19 3.92763 -14.2821 -3.49542 -0.0702496 31.6225 -0.679724 2.16849 -21.9341 4.52248
119.978 82.7242 -112.887 -6.3002 59.866 2.1516 -5.29507 6.83339 -5.53019 2.12444 -5.0376 -1.58165 -3.78189 -0.559184 -6.47897 11.2238 15.9404 -12.7604 -0.0 0.0 0.0 -0.0 0.0 0.0 -1.15029e-13 4.22897e-13 -7.42418e-13 65.6937 31.3043 -14.786 -20.7877 -15.6133 37.1407 -0.000275539 0.52632 0.0739711 5.09341e-10 -7.64637e-10 9.70748e-10 8.79945e-10 -1.29705e-09 1.66787e-09 5.09344e-10 -7.64636e-10 9.70754e-10 7.73091 5.47488 0.417314 5.09338e-10 -7.64636e-10 9.70749e-10 2.90554 0.965183 0.102902 5.0935e-10 -7.64636e-10 9.70752e-10 10.2786 0.731801 0.0259123 5.09337e-10 -7.64636e-10 9.70757e-10 2.22167 -0.733487 -0.20892 -1.14906e-13 4.22872e-13 -7.42665e-13 -58.4146 20.7645 -1.3361 14.8909 -8.47884 -26.2218 0.354455 -18.7973 2.71706 2.09255e-09 4.04491e-10 -1.41186e-09 3.64465e-09 6.96749e-10 -2.40712e-09 2.09253e-09 4.04492e-10 -1.41184e-09 -7.73091 5.47488 -0.417314 2.09254e-09 4.0449e-10 -1.41186e-09 -2.90554 0.965183 -0.102902 2.09254e-09 4.04491e-10 -1.41185e-09 -10.2786 0.731801 -0.0259123 2.09256e-09 4.0449e-10 -1.41186e-09 -2.22167 -0.733487 0.20892 -2.03217e-16 0.0 -3.88251e-19 0.374364 -25.503 -6.09543 -0.170782 32.6178 0.554981 0.158486 -19.593 0.806826 2.03217e-16 0.0 3.88251e-19 5.94836 -18.2959 -5.26219 0.185133 44.1979 -1.16114 4.43167 -32.1565 7.42556
120.085 82.9567 -111.171 -6.0771 58.309 2.1564 -5.87068 8.3804 -6.51646 2.5523 -6.16498 -1.84934 -4.57754 -0.71689 -7.86632 14.538 19.1711 -15.778 -0.0 0.0 0.0 -0.0 0.0 0.0 -9.57071e-14 4.35402e-13 -9.98595e-13 82.3386 37.5401 -19.1102 -22.6492 -16.7641 45.5821 -0.000550443 0.669916 0.0941549 6.0566e-10 -5.42316e-10 1.05256e-09 1.04693e-09 -9.04756e-10 1.80621e-09 6.05663e-10 -5.42314e-10 1.05257e-09 7.73091 5.47488 0.417314 6.05657e-10 -5.42314e-10 1.05257e-09 2.90554 0.965183 0.102902 6.0567e-10 -5.42314e-10 1.05257e-09 10.2786 0.731801 0.0259123 6.05657e-10 -5.42314e-10 1.05258e-09 2.22167 -0.733487 -0.20892 -9.55796e-14 4.35375e-13 -9.98843e-13 -71.184 25.3013 -1.25941 17.2394 -9.89171 -32.3355 0.700506 -23.069 3.43154 2.37159e-09 4.71848e-10 -2.07917e-09 4.14174e-09 8.14117e-10 -3.55817e-09 2.37157e-09 4.7185e-10 -2.07915e-09 -7.73091 5.47488 -0.417314 2.37158e-09 4.71848e-10 -2.07917e-09 -2.90554 0.965183 -0.102902 2.37158e-09 4.71848e-10 -2.07916e-09 -10.2786 0.731801 -0.0259123 2.3716e-09 4.71847e-10 -2.07917e-09 -2.22167 -0.733487 0.20892 -2.03217e-16 0.0 -3.88251e-19 -0.088398 -30.3232 -7.50422 -0.329139 39.7864 0.746804 0.512995 -24.5516 1.23799 2.03217e-16 0.0 3.88251e-19 7.22449 -21.2513 -6.57903 0.59433 53.5119 -1.70189 7.06621 -38.4722 10.4942
120.161 83.1814 -109.471 -6.1355 56.9316 1.99 -5.74425 9.10722 -6.46417 2.5971 -6.64873 -1.82417 -4.8002 -0.850545 -8.34966 15.6704 20.3523 -16.8656 -0.0 0.0 0.0 -0.0 0.0 0.0 6.38322e-15 2.65634e-13 -1.34625e-12 88.405 39.8628 -20.3182 -23.1021 -16.7188 48.4305 -0.000779318 0.782324 0.109956 5.53244e-10 4.55544e-10 8.01928e-10 9.57893e-10 8.3022e-10 1.36938e-09 5.53246e-10 4.55546e-10 8.0193e-10 7.73091 5.47488 0.417314 5.53241e-10 4.55544e-10 8.01931e-10 2.90554 0.965183 0.102902 5.53253e-10 4.55546e-10 8.01934e-10 10.2786 0.731801 0.0259123 5.5324e-10 4.55545e-10 8.0194e-10 2.22167 -0.733487 -0.20892 6.46456e-15 2.65614e-13 -1.34648e-12 -76.4162 27.0512 -0.44746 18.2417 -10.5375 -35.1559 0.890512 -25.036 3.77963 2.06968e-09 4.63589e-10 -3.25732e-09 3.64784e-09 8.03648e-10 -5.60409e-09 2.06966e-09 4.63592e-10 -3.2573e-09 -7.73091 5.47488 -0.417314 2.06967e-09 4.6359e-10 -3.25732e-09 -2.90554 0.965183 -0.102902 2.06967e-09 4.6359e-10 -3.25731e-09 -10.2786 0.731801 -0.0259123 2.06968e-09 4.63588e-10 -3.25732e-09 -2.22167 -0.733487 0.20892 -2.03217e-16 0.0 -3.88251e-19 -0.00403434 -31.6813 -7.56827 -0.388618 41.7669 0.791756 0.926219 -26.1132 1.90364 2.03217e-16 0.0 3.88251e-19 7.73835 -22.7514 -7.13102 0.903125 58.3071 -2.0749 9.00622 -39.4724 13.0961
